<svg xmlns="http://www.w3.org/2000/svg" xmlns:xlink="http://www.w3.org/1999/xlink"><symbol id="blogger" viewBox="0 0 16 16"><path d="m5.333 6c0-0.368 0.276-0.667 0.616-0.667h1.879c0.341 0 0.616 0.299 0.616 0.667s-0.275 0.667-0.616 0.667h-1.879c-0.34 0-0.616-0.299-0.616-0.667zm4.676 3.333h-4.018c-0.364 0-0.658 0.298-0.658 0.667s0.294 0.667 0.658 0.667h4.017c0.364 0 0.659-0.299 0.659-0.667s-0.295-0.667-0.658-0.667zm5.991-6v9.334c0 1.84-1.492 3.333-3.333 3.333h-9.334c-1.841 0-3.333-1.493-3.333-3.333v-9.334c0-1.84 1.492-3.333 3.333-3.333h9.334c1.841 0 3.333 1.493 3.333 3.333zm-2.667 3.875c0-0.292-0.236-0.528-0.526-0.528h-0.868c-0.444 0-0.526-0.339-0.526-0.759 0-1.797-1.454-3.254-3.248-3.254h-2.25c-1.794 0-3.248 1.457-3.248 3.255v4.156c0 1.798 1.454 3.255 3.248 3.255h4.17c1.794 0 3.248-1.457 3.248-3.255v-2.87z"></path></symbol><symbol id="camera" viewBox="0 0 16 16"><path d="M15.033 4.4a23.916 23.916 0 0 1 0 9.067.72.72 0 0 1-.241.383.805.805 0 0 1-.408.2A58.67 58.67 0 0 1 8 14.4c-2.1 0-4.2-.117-6.3-.35a.804.804 0 0 1-.425-.2.63.63 0 0 1-.225-.383C.705 11.71.533 10.214.533 8.975S.705 6.211 1.05 4.4a.666.666 0 0 1 .225-.392A.783.783 0 0 1 1.7 3.8c.6-.055 1.428-.128 2.484-.217A50.64 50.64 0 0 1 4.583 2.3a.924.924 0 0 1 .3-.408.785.785 0 0 1 .433-.192A35.74 35.74 0 0 1 8 1.6c.911 0 1.827.033 2.75.1a.79.79 0 0 1 .434.192.93.93 0 0 1 .3.408c.033.09.166.517.4 1.283 1.11.09 1.943.162 2.5.217.143.022.28.092.408.208a.765.765 0 0 1 .241.392zM4.958 11.575c.85.85 1.864 1.275 3.042 1.275s2.191-.425 3.042-1.275c.85-.85 1.274-1.864 1.274-3.042 0-1.177-.424-2.191-1.274-3.041-.85-.85-1.864-1.275-3.042-1.275s-2.191.425-3.042 1.275c-.85.85-1.274 1.864-1.274 3.041 0 1.178.424 2.192 1.274 3.042zM6.116 6.65c-.521.522-.783 1.15-.783 1.883s.262 1.362.783 1.884c.523.522 1.15.783 1.884.783s1.361-.261 1.884-.783c.521-.522.783-1.15.783-1.884s-.262-1.36-.783-1.883C9.36 6.128 8.734 5.867 8 5.867s-1.361.26-1.884.783z"></path></symbol><symbol id="cross" viewBox="0 0 16 16"><path d="M1.293 2.707l1.414-1.414L8 6.586l5.293-5.293 1.414 1.414L9.414 8l5.293 5.293-1.414 1.414L8 9.414l-5.293 5.293-1.414-1.414L6.586 8"></path></symbol><symbol id="comments" viewBox="0 0 16 16"><path d="M15.25 3.55c.145.911.217 1.877.217 2.9 0 1.011-.072 1.966-.217 2.867-.089.589-.414 1.128-.975 1.616-.561.49-1.153.767-1.775.833a40.032 40.032 0 0 1-3.616.2L5.7 15.05c-.1.1-.222.15-.367.15a.927.927 0 0 1-.217-.034c-.21-.088-.316-.255-.316-.5v-2.733l-1.3-.1c-.611-.067-1.2-.352-1.767-.858-.566-.506-.9-1.059-1-1.658-.133-.934-.2-1.884-.2-2.85 0-1 .067-1.973.2-2.917.1-.6.434-1.153 1-1.659C2.3 1.386 2.89 1.1 3.5 1.033 5.056.878 6.556.8 8 .8s2.944.078 4.5.233c.611.067 1.2.353 1.767.858.566.506.894 1.059.983 1.659z"></path></symbol><symbol id="dots" viewBox="0 0 16 16"><path d="m4 8c0 1.105-0.895 2-2 2s-2-0.895-2-2 0.895-2 2-2 2 0.895 2 2zm6 0c0 1.105-0.895 2-2 2s-2-0.895-2-2 0.895-2 2-2 2 0.895 2 2zm6 0c0 1.105-0.895 2-2 2s-2-0.895-2-2 0.895-2 2-2 2 0.895 2 2z"></path></symbol><symbol id="edit" viewBox="0 0 16 16"><path d="M1.893 9.425a.56.56 0 0 1 .2-.317L10.91.242a.74.74 0 0 1 .983-.117 12.59 12.59 0 0 1 2.267 1.75 10.683 10.683 0 0 1 1.717 2.133.763.763 0 0 1 .116.517.724.724 0 0 1-.233.467l-8.816 8.866a1.427 1.427 0 0 1-.317.2q-3.4 1.1-5.667 1.9a.757.757 0 0 1-.266.05.7.7 0 0 1-.5-.233.634.634 0 0 1-.134-.733q.2-.583 1.833-5.617zm3.16 3.525l1.04-.325 8.234-8.267a7.32 7.32 0 0 0-.75-.95l-8 8.017a.767.767 0 0 1-.567.217.702.702 0 0 1-.5-.233.77.77 0 0 1-.242-.535.733.733 0 0 1 .21-.534l7.966-7.965q-.117-.1-.41-.358-.29-.258-.44-.375L3.36 9.975q-.233.734-.733 2.2l1.183 1.183q.417-.15 1.242-.408z"></path></symbol><symbol id="facebook" viewBox="0 0 16 16"><path d="M16,1V15a1.007,1.007,0,0,1-1,1H11V9.78125h2l.33594-2.30469H11V5.66406a.9118.9118,0,0,1,1-1.03125h1.5V2.55469a11.28444,11.28444,0,0,0-1.64062-.10937c-2.19531,0-3.30469,1.21875-3.30469,3.03906V7.47656h-2V9.78125h2V16H1a1.007,1.007,0,0,1-1-1V1A1.007,1.007,0,0,1,1,0H15A1.007,1.007,0,0,1,16,1Z"></path></symbol><symbol id="github" viewBox="0 0 16 16"><path d="M8 0.198c-4.418 0-8 3.582-8 8 0 3.535 2.292 6.533 5.471 7.591 0.4 0.074 0.547-0.174 0.547-0.385 0-0.191-0.008-0.821-0.011-1.489-2.226 0.484-2.695-0.944-2.695-0.944-0.364-0.925-0.888-1.171-0.888-1.171-0.726-0.497 0.055-0.486 0.055-0.486 0.803 0.056 1.226 0.824 1.226 0.824 0.714 1.223 1.872 0.869 2.328 0.665 0.072-0.517 0.279-0.87 0.508-1.070-1.777-0.202-3.645-0.888-3.645-3.954 0-0.873 0.313-1.587 0.824-2.147-0.083-0.202-0.357-1.015 0.077-2.117 0 0 0.672-0.215 2.201 0.82 0.638-0.177 1.322-0.266 2.002-0.269 0.68 0.003 1.365 0.092 2.004 0.269 1.527-1.035 2.198-0.82 2.198-0.82 0.435 1.102 0.162 1.916 0.079 2.117 0.513 0.56 0.823 1.274 0.823 2.147 0 3.073-1.872 3.749-3.653 3.947 0.287 0.248 0.543 0.735 0.543 1.481 0 1.070-0.009 1.932-0.009 2.195 0 0.213 0.144 0.462 0.55 0.384 3.177-1.059 5.466-4.057 5.466-7.59 0-4.418-3.582-8-8-8z"></path></symbol><symbol id="google" viewBox="0 0 16 16"><path d="M15.636 6.545H8.182v3.09h4.29c-.4 1.965-2.072 3.092-4.29 3.092-2.618 0-4.727-2.11-4.727-4.727s2.11-4.727 4.727-4.727c1.127 0 2.145.4 2.945 1.054L13.455 2c-1.42-1.236-3.237-2-5.273-2-4.437 0-8 3.564-8 8s3.563 8 8 8c4 0 7.636-2.91 7.636-8 0-.473-.073-.982-.182-1.455z"></path></symbol><symbol id="instagram" viewBox="0 0 16 16"><path d="M8 1.441c2.136 0 2.39.009 3.233.047.78.036 1.203.166 1.485.276.374.145.64.318.92.598.28.28.453.546.598.92.11.282.24.705.276 1.485.038.844.047 1.097.047 3.233s-.009 2.39-.047 3.233c-.036.78-.166 1.203-.276 1.485-.145.374-.318.64-.598.92-.28.28-.546.453-.92.598-.282.11-.705.24-1.485.276-.844.038-1.097.047-3.233.047s-2.39-.009-3.233-.047c-.78-.036-1.203-.166-1.485-.276a2.479 2.479 0 0 1-.92-.598 2.479 2.479 0 0 1-.598-.92c-.11-.282-.24-.705-.276-1.485-.038-.844-.047-1.097-.047-3.233s.009-2.39.047-3.233c.036-.78.166-1.203.276-1.485.145-.374.318-.64.598-.92.28-.28.546-.453.92-.598.282-.11.705-.24 1.485-.276.844-.038 1.097-.047 3.233-.047M8 0C5.827 0 5.555.01 4.702.048 3.85.087 3.269.222 2.76.42a3.921 3.921 0 0 0-1.417.923c-.445.444-.719.89-.923 1.417-.198.509-.333 1.09-.372 1.942C.01 5.555 0 5.827 0 8s.01 2.445.048 3.298c.039.852.174 1.433.372 1.942.204.526.478.973.923 1.417.444.445.89.719 1.417.923.509.198 1.09.333 1.942.372C5.555 15.99 5.827 16 8 16s2.445-.01 3.298-.048c.852-.039 1.433-.174 1.942-.372a3.921 3.921 0 0 0 1.417-.923c.445-.444.719-.89.923-1.417.198-.509.333-1.09.372-1.942C15.99 10.445 16 10.173 16 8s-.01-2.445-.048-3.298c-.039-.852-.174-1.433-.372-1.942a3.921 3.921 0 0 0-.923-1.417A3.921 3.921 0 0 0 13.24.42c-.509-.198-1.09-.333-1.942-.372C10.445.01 10.173 0 8 0z"></path><path d="M8 3.892a4.108 4.108 0 1 0 0 8.216 4.108 4.108 0 0 0 0-8.216zm0 6.775a2.667 2.667 0 1 1 0-5.334 2.667 2.667 0 0 1 0 5.334z"></path><circle cx="12.27" cy="3.73" r=".96"></circle></symbol><symbol id="link" viewBox="0 0 16 16"><path d="M7.395 14.738a4.322 4.322 0 0 1-3.07 1.266 4.318 4.318 0 0 1-4.329-4.328c0-1.117.422-2.227 1.266-3.07l2.281-2.274c-.016.18-.023.352-.023.531 0 .672.117 1.336.351 1.969l-1.18 1.18a2.33 2.33 0 0 0-.68 1.648 2.317 2.317 0 0 0 2.329 2.328 2.33 2.33 0 0 0 1.648-.68l2.477-2.476a2.283 2.283 0 0 0 .695-1.648 2.27 2.27 0 0 0-.695-1.649 1.003 1.003 0 0 1-.29-.719.998.998 0 0 1 1.009-1.007c.257 0 .515.101.71.296.844.852 1.258 1.961 1.258 3.07s-.414 2.22-1.257 3.063l-2.5 2.5zm5.07-5.078a5.56 5.56 0 0 0-.328-2.477l1.18-1.203c.453-.46.68-1.054.68-1.648a2.317 2.317 0 0 0-2.329-2.328c-.594 0-1.188.226-1.648.68L7.52 5.16c-.454.469-.688 1.07-.688 1.672s.227 1.195.688 1.648c.203.204.304.461.304.711s-.101.5-.304.696a.968.968 0 0 1-.704.289.994.994 0 0 1-.703-.29c-.836-.85-1.258-1.96-1.258-3.07s.422-2.218 1.258-3.062l2.485-2.477a4.31 4.31 0 0 1 3.054-1.28c1.11 0 2.22.429 3.07 1.28s1.282 1.961 1.282 3.07a4.31 4.31 0 0 1-1.281 3.055L12.465 9.66z"></path></symbol><symbol id="linkedin" viewBox="0 0 16 16"><path d="M1.984 4h-.023C.78 4 0 3.187 0 2.164 0 1.133.797.336 2.016.336c1.203 0 1.968.797 1.984 1.828C4 3.187 3.219 4 1.984 4zm1.68 1.664V16H.336V5.664h3.328zM9 16H5.664V8S5.61 6.016 5.61 5.664h3.282L9 7.094c.664-1 1.664-1.758 3-1.758 2.336 0 4 1.664 4 4.664v6h-3.336v-5.664c0-1.672-.812-2.336-1.812-2.336S9 8.664 9 10v6z"></path></symbol><symbol id="mail" viewBox="0 0 16 16"><path d="M15.467 2.617v.766c-.078.29-.273.584-.584.884L9.2 8.567c-.31.244-.71.366-1.199.366-.49 0-.888-.122-1.2-.366l-5.684-4.3c-.31-.3-.505-.595-.583-.884v-.766c0-.134.044-.247.133-.342A.567.567 0 0 1 .983 2.1c2.311-.333 4.65-.5 7.017-.5 2.365 0 4.7.167 7 .5.133.023.244.08.332.175.09.095.135.208.135.342zM8 10.667c-.867 0-1.595-.223-2.183-.667L.533 5.95v7.433c0 .134.044.248.133.342s.195.153.317.175c2.322.333 4.66.5 7.017.5 2.365 0 4.7-.167 7-.5a.569.569 0 0 0 .332-.175.478.478 0 0 0 .135-.342V5.95L10.184 10c-.59.444-1.319.667-2.184.667z"></path></symbol><symbol id="pinterest" viewBox="0 0 16 16"><path d="m8 0c-4.418 0-8 3.581-8 8 0 3.389 2.109 6.284 5.085 7.449-0.07-0.632-0.134-1.603 0.028-2.294 0.145-0.624 0.938-3.976 0.938-3.976s-0.24-0.48-0.24-1.188c0-1.112 0.645-1.943 1.448-1.943 0.682 0 1.012 0.513 1.012 1.127 0 0.686-0.437 1.712-0.663 2.663-0.189 0.796 0.399 1.446 1.185 1.446 1.422 0 2.514-1.499 2.514-3.663 0-1.916-1.376-3.255-3.341-3.255-2.276 0-3.612 1.707-3.612 3.471 0 0.688 0.265 1.426 0.595 1.826 0.066 0.079 0.075 0.149 0.056 0.23l-0.222 0.906c-0.036 0.147-0.116 0.178-0.268 0.108-1-0.466-1.624-1.926-1.624-3.1 0-2.523 1.833-4.841 5.286-4.841 2.775 0 4.932 1.978 4.932 4.621 0 2.757-1.738 4.976-4.152 4.976-0.81 0-1.572-0.421-1.833-0.919l-0.499 1.902c-0.18 0.695-0.668 1.567-0.994 2.097 0.749 0.232 1.544 0.357 2.369 0.357 4.418 0 8-3.582 8-8 0-4.419-3.582-8-8-8z"></path></symbol><symbol id="rss" viewBox="0 0 16 16"><path d="m4.335 13.835c0 1.196-0.97 2.165-2.167 2.165s-2.168-0.969-2.168-2.165 0.971-2.166 2.168-2.166c1.197 1e-3 2.167 0.97 2.167 2.166zm-4.335-8.382v3.208c4.033 0.041 7.307 3.31 7.348 7.339h3.211c-0.041-5.807-4.745-10.505-10.559-10.547zm0-2.245c7.053 0.031 12.768 5.729 12.789 12.792h3.211c-0.02-8.821-7.17-15.969-16-16v3.208z"></path></symbol><symbol id="search" viewBox="0 0 16 16"><path d="m1.949 11.383c-1.3-1.299-1.949-2.871-1.949-4.716s0.649-3.418 1.949-4.717c1.301-1.301 2.871-1.95 4.716-1.95s3.416 0.649 4.715 1.95c1.301 1.299 1.952 2.872 1.952 4.717 0 0.978-0.201 1.9-0.602 2.765l2.95 4.018c0.266 0.356 0.367 0.75 0.299 1.184-0.059 0.422-0.288 0.801-0.633 1.05-0.288 0.212-0.608 0.316-0.958 0.316s-0.67-0.104-0.957-0.316l-4-2.95c-0.866 0.4-1.788 0.6-2.767 0.6-1.844-1e-3 -3.414-0.652-4.715-1.951zm8.014-1.416c0.913-0.912 1.369-2.012 1.369-3.3 0-1.289-0.456-2.389-1.369-3.3-0.907-0.911-2.008-1.366-3.298-1.366-1.287 0-2.389 0.455-3.301 1.366-0.909 0.911-1.364 2.011-1.364 3.3s0.455 2.389 1.364 3.3c0.912 0.911 2.014 1.366 3.301 1.366 1.29 0 2.391-0.455 3.298-1.366z"></path></symbol><symbol id="share" viewBox="0 0 16 16"><path d="m15.999 13c-0.06 2.309-2.597 3.688-4.567 2.482-0.868-0.531-1.407-1.465-1.433-2.482v-8e-3l-5.195-2.594c-1.846 1.388-4.502 0.257-4.781-2.036-0.279-2.292 2.029-4.027 4.154-3.122 0.223 0.095 0.433 0.216 0.627 0.362l5.195-2.594v-8e-3c0.059-2.309 2.597-3.688 4.567-2.482 0.867 0.531 1.407 1.465 1.433 2.482 0 2.31-2.501 3.754-4.502 2.599-0.105-0.061-0.206-0.128-0.303-0.201l-5.211 2.602 5.211 2.602c1.844-1.389 4.502-0.261 4.783 2.031 0.014 0.122 0.022 0.244 0.022 0.367z"></path></symbol><symbol id="tumblr" viewBox="0 0 16 16"><path d="m10.549 13.396c-0.473 0-0.885-0.108-1.238-0.323-0.274-0.16-0.458-0.368-0.548-0.625-0.1-0.25-0.15-0.848-0.15-1.792v-4.104h3.848v-2.51h-3.847v-4.042h-2.313c-0.107 0.82-0.298 1.5-0.572 2.042-0.275 0.534-0.638 0.993-1.09 1.375-0.45 0.375-0.996 0.666-1.638 0.875v2.26h1.796v5.614c0 0.743 0.08 1.303 0.234 1.678 0.148 0.375 0.426 0.74 0.835 1.093 0.423 0.347 0.91 0.608 1.46 0.78 0.57 0.19 1.224 0.283 1.964 0.283 0.675 0 1.284-0.066 1.827-0.198 0.535-0.118 1.163-0.344 1.882-0.678v-2.52c-0.81 0.528-1.63 0.792-2.453 0.792z"></path></symbol><symbol id="twitter" viewBox="0 0 16 16"><path d="M14.36719,4.73438v.42969A9.26817,9.26817,0,0,1,5.03906,14.5,9.21786,9.21786,0,0,1,0,13.16406a5.18151,5.18151,0,0,0,.78125.05469,6.62385,6.62385,0,0,0,4.07031-1.55469A3.27087,3.27087,0,0,1,1.79688,9.38281a3.22609,3.22609,0,0,0,.60938.0625,3.28228,3.28228,0,0,0,.875-.11719A3.27939,3.27939,0,0,1,.64844,6.10938V6.07031a3.2901,3.2901,0,0,0,1.48438.40625A3.266,3.266,0,0,1,.66406,3.75781a3.1278,3.1278,0,0,1,.44531-1.59375A9.32843,9.32843,0,0,0,7.86719,5.53125a3.41959,3.41959,0,0,1-.07031-.75781A3.26753,3.26753,0,0,1,11.07031,1.5a3.39563,3.39563,0,0,1,2.41406,1.03125,6.58921,6.58921,0,0,0,2.07031-.79687,3.25438,3.25438,0,0,1-1.44531,1.82031A6.402,6.402,0,0,0,16,3.03125,6.64822,6.64822,0,0,1,14.36719,4.73438Z"></path></symbol><symbol id="user" viewBox="0 0 16 16"><path d="M15.083 15.183l-.066.017c-.045.01-.112.025-.2.04s-.195.04-.317.068c-.122.028-.275.056-.458.084-.184.027-.38.053-.592.074-1.49.178-3.305.268-5.45.268-3.256 0-5.616-.184-7.083-.55-.134-.045-.236-.126-.31-.242s-.09-.247-.057-.392c.155-.733.428-1.34.816-1.816.39-.48.91-.923 1.568-1.334.2-.122.593-.306 1.182-.55.356-.145.634-.26.834-.35.2-.09.414-.222.642-.4s.375-.36.44-.55c.135-.39-.026-.94-.482-1.65-1.41-2.244-1.66-4.15-.75-5.717.345-.6.8-1.07 1.367-1.408C6.733.435 7.345.265 8 .265s1.264.17 1.825.51c.56.34 1.02.808 1.375 1.408.91 1.556.666 3.46-.733 5.717-.445.7-.612 1.25-.5 1.65.09.278.294.51.616.7s.762.39 1.317.6c.567.244.955.428 1.166.55.656.41 1.178.855 1.568 1.334.388.477.66 1.083.816 1.816.033.145.014.275-.058.392s-.175.197-.31.24z"></path></symbol><symbol id="whatsapp" viewBox="0 0 16 16"><path d="M13.669 2.325A7.934 7.934 0 0 0 8.033 0C3.643 0 .07 3.556.067 7.928c0 1.397.366 2.761 1.063 3.964L0 16l4.223-1.103a7.99 7.99 0 0 0 3.807.965h.003c4.391 0 7.965-3.556 7.967-7.928 0-2.118-.827-4.11-2.331-5.609zM8.033 14.523h-.002a6.635 6.635 0 0 1-3.37-.918l-.242-.143-2.506.654.669-2.431-.158-.25a6.55 6.55 0 0 1-1.012-3.507C1.413 4.295 4.384 1.34 8.036 1.34c1.769 0 3.431.687 4.681 1.933a6.534 6.534 0 0 1 1.938 4.662c-.002 3.633-2.972 6.59-6.622 6.59zm3.632-4.935c-.199-.099-1.177-.578-1.36-.644-.182-.067-.315-.1-.448.099-.132.198-.514.644-.63.776-.116.133-.232.15-.431.05-.2-.1-.84-.308-1.6-.983a5.974 5.974 0 0 1-1.108-1.373c-.116-.198-.013-.305.087-.404.09-.089.2-.231.299-.347.1-.116.132-.198.199-.33.066-.133.033-.248-.017-.347-.05-.1-.448-1.075-.614-1.471-.161-.387-.325-.334-.448-.34-.115-.006-.248-.008-.381-.008s-.348.05-.53.248c-.183.199-.698.678-.698 1.653s.714 1.917.813 2.05c.1.132 1.404 2.133 3.4 2.99.476.205.846.327 1.135.418.477.15.911.13 1.254.078.383-.056 1.178-.479 1.344-.941.166-.463.166-.86.116-.943s-.182-.132-.382-.23z"></path></symbol><symbol id="youtube" viewBox="0 0 16 16"><path d="M16 8c0 5.664 0 5.664-8 5.664s-8 0-8-5.664 0-5.664 8-5.664 8 0 8 5.664zm-5 0L6 5v6l5-3z"></path></symbol><symbol id="discord" viewBox="0 0 16 16"><path d="m14.126 0c1.033 0 1.874 0.736 1.874 1.648v14.352l-1.966-1.52-1.106-0.896-1.17-0.952 0.484 1.48h-10.368c-1.033 0-1.874-0.736-1.874-1.648v-10.816c0-0.912 0.841-1.648 1.874-1.648h12.252zm-3.529 10.448c2.02-0.056 2.797-1.216 2.797-1.216 0-2.576-1.316-4.664-1.316-4.664-1.317-0.864-2.569-0.84-2.569-0.84l-0.128 0.128c1.554 0.416 2.276 1.016 2.276 1.016-0.951-0.456-1.883-0.68-2.752-0.768-0.658-0.064-1.289-0.048-1.847 0.016l-0.155 0.016c-0.32 0.024-1.097 0.128-2.076 0.504-0.338 0.136-0.539 0.232-0.539 0.232s0.759-0.632 2.405-1.048l-0.092-0.096s-1.252-0.024-2.569 0.84c0 0-1.317 2.088-1.317 4.664 0 0 0.768 1.16 2.789 1.216 0 0 0.338-0.36 0.613-0.664-1.162-0.304-1.6-0.944-1.6-0.944l0.256 0.136 0.036 0.024 0.036 0.018 0.011 4e-3 0.035 0.018c0.229 0.112 0.458 0.2 0.668 0.272 0.375 0.128 0.823 0.256 1.344 0.344 0.686 0.112 1.49 0.152 2.368 8e-3 0.43-0.064 0.868-0.176 1.326-0.344 0.32-0.104 0.676-0.256 1.051-0.472 0 0-0.457 0.656-1.655 0.952 0.274 0.304 0.604 0.648 0.604 0.648zm-4.252-3.736c-0.521 0-0.932 0.4-0.932 0.888s0.42 0.888 0.932 0.888c0.521 0 0.933-0.4 0.933-0.888 9e-3 -0.488-0.412-0.888-0.933-0.888zm3.337 0c-0.521 0-0.932 0.4-0.932 0.888s0.42 0.888 0.932 0.888c0.521 0 0.933-0.4 0.933-0.888s-0.412-0.888-0.933-0.888z"></path></symbol><symbol id="logo" viewBox="0 0 16 16"><path d="m9.335 11.487c-0.118 0.164-0.97 0.614-0.974-0.264v-0.31c0.286-0.138 0.487-0.422 0.487-0.676 0-0.351-0.381-0.508-0.848-0.508s-0.847 0.157-0.847 0.508c0 0.251 0.196 0.53 0.478 0.671v0.315c-6e-3 0.818-0.787 0.552-0.928 0.302-0.27-0.478-0.833-0.102-0.627 0.282 0.193 0.36 0.667 0.612 1.153 0.612 0.298 0 0.566-0.098 0.766-0.278 0.202 0.18 0.469 0.278 0.767 0.278 0.485 0 0.959-0.252 1.153-0.612 0.21-0.39-0.278-0.737-0.58-0.32zm0.665-3.82c-0.306 0-0.555 0.249-0.555 0.556 0 0.306 0.249 0.555 0.555 0.555s0.555-0.249 0.555-0.555c0-0.307-0.249-0.556-0.555-0.556zm0 1.778c-0.674 0-1.222-0.549-1.222-1.222 0-0.675 0.548-1.223 1.222-1.223s1.222 0.548 1.222 1.223c0 0.673-0.548 1.222-1.222 1.222zm-4-1.778c-0.306 0-0.555 0.249-0.555 0.556 0 0.306 0.249 0.555 0.555 0.555 0.307 0 0.556-0.249 0.556-0.555 0-0.307-0.249-0.556-0.556-0.556zm0 1.778c-0.674 0-1.222-0.549-1.222-1.222 0-0.675 0.548-1.223 1.222-1.223s1.223 0.548 1.223 1.223c0 0.673-0.549 1.222-1.223 1.222zm1.03-3.774c0.515-0.13 1.401-0.132 1.939 0 0.652-0.985 1.096-1.532 2.02-2.338 1.8 2.201 2.508 6.064 2.798 9.155-1.344 1.727-3.435 2.845-5.787 2.845-2.373 0-4.481-1.138-5.822-2.892 0.231-3.146 0.825-7.079 2.489-9.108 0.979 0.774 1.617 1.434 2.363 2.338zm0.97-5.671c-4.415 0-8 3.584-8 8 0 4.415 3.585 8 8 8s8-3.585 8-8c0-4.416-3.585-8-8-8z"></path></symbol><symbol id="arrowtop" viewBox="0 0 16 16"><path d="m0 11.113 1.886 1.887 6.117-6.226 6.111 6.226 1.886-1.887-7.997-8.113z"></path></symbol></svg>
